<svg xmlns="http://www.w3.org/2000/svg" viewBox="0 0 400 300" width="100%" height="100%">
  <defs>
    <linearGradient id="bg" x1="0" y1="0" x2="0" y2="1">
      <stop offset="0%" stop-color="#0f172a"/>
      <stop offset="100%" stop-color="#1e293b"/>
    </linearGradient>
  </defs>
  <rect width="400" height="300" fill="url(#bg)" rx="12"/>
  <rect x="110" y="80" width="180" height="60" rx="6" fill="#818cf8" opacity="0.15" stroke="#818cf8" stroke-width="2"/>
  <rect x="120" y="90" width="22" height="16" rx="3" fill="#818cf8" opacity="0.7"/>
  <rect x="148" y="90" width="22" height="16" rx="3" fill="#818cf8" opacity="0.7"/>
  <rect x="176" y="90" width="22" height="16" rx="3" fill="#818cf8" opacity="0.7"/>
  <rect x="204" y="90" width="22" height="16" rx="3" fill="#818cf8" opacity="0.7"/>
  <rect x="232" y="90" width="22" height="16" rx="3" fill="#818cf8" opacity="0.7"/>
  <rect x="260" y="90" width="22" height="16" rx="3" fill="#818cf8" opacity="0.7"/>
  <rect x="120" y="112" width="22" height="16" rx="3" fill="#818cf8" opacity="0.55"/>
  <rect x="148" y="112" width="22" height="16" rx="3" fill="#818cf8" opacity="0.55"/>
  <rect x="176" y="112" width="22" height="16" rx="3" fill="#818cf8" opacity="0.55"/>
  <rect x="204" y="112" width="22" height="16" rx="3" fill="#818cf8" opacity="0.55"/>
  <rect x="232" y="112" width="50" height="16" rx="3" fill="#818cf8" opacity="0.55"/>
  <rect x="135" y="148" width="130" height="16" rx="3" fill="#818cf8" opacity="0.4"/>
  <rect x="24" y="24" width="100" height="28" rx="6" fill="rgba(0,0,0,0.5)"/>
  <text x="74" y="43" fill="#ffffff" font-size="12" font-family="-apple-system, sans-serif" font-weight="600" text-anchor="middle">Electronics</text>
  <text x="200" y="220" fill="#f8fafc" font-size="14" font-family="-apple-system, sans-serif" font-weight="600" text-anchor="middle">Mechanical Keyboard</text>
</svg>